PathFileType	4	(X/Y/Z)	D:\TRACE\v60_Jaco2_6-2-23\JustBodyDRS_Motion3_7-platform.trc
DataRate	CameraRate	NumFrames	NumMarkers	Units	OrigDataRate	OrigDataStartFrame	OrigNumFrames
100.00	100.00	      48	5	mm	100.00	1	      7000
Frame#	Time	Left_Front			Right_Front			Left_Aft			Right_Aft			Post			
		X1	Y1	Z1	X2	Y2	Z2	X3	Y3	Z3	X4	Y4	Z4	X5	Y5	Z5	

1	0.000	-814.58734	128.40865	-611.90833	755.90015	125.72240	-588.83252	-745.74359	-73.85968	504.07916	668.69385	-92.27583	608.25812	-21.48035	1462.21204	-684.35205	
2	0.010	-814.60272	128.41202	-611.92200	755.89972	125.71200	-588.83643	-745.74170	-73.83405	504.06247	668.65601	-92.29086	608.21857	-21.52759	1462.19434	-684.33582	
3	0.020	-814.61627	128.47285	-611.91113	755.90112	125.69617	-588.85883	-745.76074	-73.79579	504.05557	668.64923	-92.28905	608.22021	-21.51896	1462.20520	-684.32941	
4	0.030	-814.60406	128.46101	-611.91467	755.90436	125.74409	-588.84198	-745.77313	-73.80319	504.05643	668.71301	-92.28004	608.20721	-21.48039	1462.20166	-684.30823	
5	0.040	-814.60297	128.44487	-611.89032	755.90759	125.71416	-588.85059	-745.75964	-73.80534	504.08539	668.65515	-92.27840	608.24493	-21.54060	1462.18018	-684.33667	
6	0.050	-814.57819	128.39696	-611.91406	755.93353	125.68646	-588.86792	-745.73688	-73.82735	504.05899	668.69647	-92.29114	608.23456	-21.52102	1462.16943	-684.32013	
7	0.060	-814.58459	128.39441	-611.90466	755.87848	125.69704	-588.85089	-745.74487	-73.84555	504.06876	668.72473	-92.26617	608.28217	-21.56922	1462.20825	-684.33685	
8	0.070	-814.58307	128.40828	-611.91840	755.93250	125.71247	-588.83209	-745.74847	-73.79837	504.07642	668.71759	-92.27356	608.24091	-21.49345	1462.19495	-684.34271	
9	0.080	-814.62408	128.49300	-611.90344	755.93860	125.72145	-588.85370	-745.75110	-73.80997	504.01434	668.73169	-92.26078	608.24567	-21.49773	1462.21411	-684.32428	
10	0.090	-814.62537	128.48160	-611.93439	755.94232	125.71046	-588.85522	-745.75549	-73.79224	504.06427	668.70898	-92.26888	608.20789	-21.52568	1462.22717	-684.33423	
11	0.100	-814.57245	128.40251	-611.93451	755.88977	125.72549	-588.83704	-745.76929	-73.81197	504.07343	668.63562	-92.31117	608.19366	-21.51825	1462.19788	-684.32245	
12	0.110	-814.60028	128.42772	-611.88147	755.92242	125.71726	-588.80615	-745.76001	-73.84802	504.08160	668.67328	-92.28561	608.21167	-21.49862	1462.18921	-684.29712	
13	0.120	-814.58203	128.41667	-611.88531	755.86877	125.68666	-588.86084	-745.75812	-73.81588	504.07022	668.71466	-92.27360	608.22778	-21.51398	1462.17834	-684.31610	
14	0.130	-814.58594	128.41478	-611.90356	755.90747	125.70097	-588.84650	-745.75781	-73.81638	504.07297	668.69824	-92.28260	608.23511	-21.48928	1462.19250	-684.32318	
15	0.140	-814.62952	128.46605	-611.89856	755.89966	125.72900	-588.86469	-745.74127	-73.79987	504.07068	668.73309	-92.25871	608.24585	-21.54249	1462.20276	-684.36078	
16	0.150	-814.60889	128.46567	-611.92114	755.92133	125.70821	-588.84778	-745.74426	-73.79300	504.04532	668.70898	-92.28376	608.23230	-21.48142	1462.23364	-684.30145	
17	0.160	-814.63135	128.44221	-611.91418	755.89594	125.71001	-588.85815	-745.73901	-73.81833	504.05798	668.71704	-92.27367	608.21576	-21.53432	1462.20203	-684.33801	
18	0.170	-814.62653	128.45326	-611.89624	755.90308	125.71413	-588.85797	-745.75293	-73.82157	504.02109	668.68427	-92.28706	608.22961	-21.45142	1462.17090	-684.31409	
19	0.180	-814.60944	128.43295	-611.88452	755.89484	125.73083	-588.83362	-745.76532	-73.80016	504.09747	668.67603	-92.27264	608.23285	-21.49492	1462.20239	-684.32617	
20	0.190	-814.59430	128.45367	-611.95380	755.95215	125.74603	-588.82794	-745.76123	-73.80669	504.03482	668.72772	-92.26881	608.22327	-21.47194	1462.19604	-684.33008	
21	0.200	-814.56525	128.42500	-611.93445	755.96338	125.71980	-588.81494	-745.75903	-73.80537	504.05286	668.73944	-92.27117	608.24030	-21.46758	1462.21729	-684.33563	
22	0.210	-814.58960	128.41287	-611.91370	755.90649	125.71461	-588.82251	-745.74725	-73.82796	504.03870	668.71643	-92.26348	608.21069	-21.51103	1462.19006	-684.32001	
23	0.220	-814.57422	128.40065	-611.89099	755.88873	125.72303	-588.82385	-745.75287	-73.81920	504.07608	668.70422	-92.27203	608.25879	-21.51245	1462.17554	-684.31287	
24	0.230	-814.61340	128.44026	-611.88733	755.91803	125.68829	-588.85541	-745.77417	-73.84550	504.04413	668.65167	-92.30877	608.21802	-21.54217	1462.21082	-684.32391	
25	0.240	-814.59808	128.41405	-611.91766	755.88940	125.67704	-588.85864	-745.74658	-73.81268	504.06381	668.71283	-92.27243	608.21692	-21.50259	1462.21472	-684.34943	
26	0.250	-814.62006	128.45018	-611.90814	755.90649	125.70921	-588.83759	-745.73322	-73.79546	504.04141	668.72418	-92.27174	608.21362	-21.53170	1462.22314	-684.37061	
27	0.260	-814.61700	128.42743	-611.92981	755.94104	125.68962	-588.82825	-745.76221	-73.80991	504.05426	668.68262	-92.28501	608.23474	-21.49295	1462.17749	-684.31927	
28	0.270	-814.59143	128.43007	-611.91412	755.91705	125.71492	-588.81055	-745.76001	-73.78739	504.06818	668.70551	-92.27857	608.22168	-21.53730	1462.21729	-684.32996	
29	0.280	-814.60107	128.42104	-611.91565	755.94409	125.70592	-588.84705	-745.76581	-73.81450	504.05362	668.75800	-92.27203	608.20612	-21.52039	1462.21667	-684.35266	
30	0.290	-814.56549	128.39662	-611.91498	755.90680	125.72479	-588.81921	-745.76868	-73.81985	504.09531	668.70398	-92.27486	608.23834	-21.49709	1462.20557	-684.30377	
31	0.300	-814.60095	128.43187	-611.92523	755.93500	125.71342	-588.83569	-745.76990	-73.81976	504.05954	668.71820	-92.26783	608.20764	-21.50647	1462.22168	-684.34534	
32	0.310	-814.63177	128.48782	-611.89642	755.91980	125.73262	-588.82410	-745.75171	-73.80894	504.05820	668.71643	-92.27533	608.23462	-21.50257	1462.22363	-684.35413	
33	0.320	-814.64160	128.47346	-611.89758	755.91071	125.69808	-588.86530	-745.77777	-73.81966	504.04993	668.69989	-92.29215	608.22443	-21.51371	1462.20813	-684.35779	
34	0.330	-814.59369	128.46031	-611.89984	755.92810	125.70217	-588.83167	-745.75299	-73.83018	504.03998	668.72839	-92.25542	608.24829	-21.49145	1462.21948	-684.32239	
35	0.340	-814.60919	128.43863	-611.91754	755.90588	125.69817	-588.85297	-745.75464	-73.81882	504.03351	668.74908	-92.26331	608.21442	-21.50411	1462.22144	-684.33728	
36	0.350	-814.57886	128.41759	-611.88586	755.91791	125.71798	-588.83783	-745.73419	-73.81572	504.04395	668.70410	-92.29626	608.19495	-21.46668	1462.19373	-684.29901	
37	0.360	-814.58777	128.41322	-611.88739	755.88763	125.69643	-588.83899	-745.73981	-73.81254	504.03253	668.70123	-92.28004	608.24231	-21.50035	1462.20313	-684.33630	
38	0.370	-814.60480	128.41852	-611.92346	755.94275	125.72689	-588.82648	-745.74213	-73.83183	504.04758	668.72498	-92.26585	608.20123	-21.47379	1462.19727	-684.33820	
39	0.380	-814.60913	128.44391	-611.88354	755.91962	125.71023	-588.82776	-745.73926	-73.82036	504.04166	668.70581	-92.28513	608.21698	-21.49722	1462.18689	-684.31268	
40	0.390	-814.62964	128.45531	-611.87842	755.92719	125.69563	-588.85400	-745.73584	-73.81217	504.06329	668.66724	-92.29025	608.21533	-21.42595	1462.20752	-684.29663	
41	0.400	-814.60046	128.42087	-611.92871	755.87170	125.68153	-588.82788	-745.73468	-73.81918	504.03717	668.63660	-92.31608	608.20557	-21.53475	1462.19800	-684.32581	
42	0.410	-814.60370	128.42609	-611.90826	755.90527	125.67605	-588.84454	-745.76990	-73.80109	504.04938	668.65277	-92.31585	608.18512	-21.47501	1462.17236	-684.29254	
43	0.420	-814.61316	128.44601	-611.91986	755.92822	125.69667	-588.83008	-745.74817	-73.80143	504.04953	668.68701	-92.29165	608.20740	-21.53718	1462.23071	-684.36139	
44	0.430	-814.55072	128.39703	-611.96051	755.94604	125.72215	-588.82306	-745.75671	-73.81917	504.03076	668.68542	-92.28277	608.20990	-21.50961	1462.21509	-684.34180	
45	0.440	-814.58508	128.41699	-611.91876	755.91034	125.73499	-588.84113	-745.75195	-73.80195	504.03030	668.71051	-92.27382	608.22369	-21.50146	1462.21985	-684.34064	
46	0.450	-814.55902	128.39087	-611.93774	755.93616	125.70390	-588.82465	-745.74695	-73.83606	504.05618	668.73676	-92.26990	608.22546	-21.50641	1462.20654	-684.30389	
47	0.460	-814.55768	128.40154	-611.91553	755.90179	125.72034	-588.82556	-745.75214	-73.84433	504.07074	668.67200	-92.27976	608.23804	-21.50428	1462.19836	-684.33197	
48	0.470	-814.58173	128.40825	-611.90576	755.92047	125.69718	-588.85748	-745.73950	-73.80440	504.05511	668.65839	-92.27017	608.22852	-21.48806	1462.18665	-684.31647	
